<svg width="672" height="175" viewBox="0 0 672 175" fill="none" xmlns="http://www.w3.org/2000/svg">
<path d="M16.5796 44.605L19.8096 82.09H0.599629L3.74463 44.605H16.5796ZM10.2046 22.165C13.038 22.165 15.333 23.0433 17.0896 24.8C18.903 26.5 19.8096 28.5967 19.8096 31.09C19.8096 33.5267 18.903 35.595 17.0896 37.295C15.333 38.995 13.038 39.845 10.2046 39.845C7.3713 39.845 5.04796 38.995 3.23463 37.295C1.4213 35.595 0.514629 33.5267 0.514629 31.09C0.514629 28.5967 1.4213 26.5 3.23463 24.8C5.04796 23.0433 7.3713 22.165 10.2046 22.165ZM44.526 35.595H71.981V48.6H44.526V35.595ZM45.716 69H28.886V9.5H75.551V22.505H45.716V69ZM105.801 69.765C100.361 69.765 95.6011 68.745 91.5211 66.705C87.4977 64.6083 84.3527 61.775 82.0861 58.205C79.8761 54.5783 78.7711 50.47 78.7711 45.88C78.7711 41.29 79.8477 37.21 82.0011 33.64C84.2111 30.0133 87.2427 27.2083 91.0961 25.225C94.9494 23.185 99.2844 22.165 104.101 22.165C108.634 22.165 112.771 23.1 116.511 24.97C120.251 26.7833 123.226 29.475 125.436 33.045C127.646 36.615 128.751 40.95 128.751 46.05C128.751 46.6167 128.723 47.2683 128.666 48.005C128.609 48.7417 128.553 49.4217 128.496 50.045H92.0311V41.545H119.911L113.791 43.925C113.848 41.8283 113.451 40.015 112.601 38.485C111.808 36.955 110.674 35.765 109.201 34.915C107.784 34.065 106.113 33.64 104.186 33.64C102.259 33.64 100.559 34.065 99.0861 34.915C97.6694 35.765 96.5644 36.9833 95.7711 38.57C94.9777 40.1 94.5811 41.9133 94.5811 44.01V46.475C94.5811 48.7417 95.0344 50.6967 95.9411 52.34C96.9044 53.9833 98.2644 55.2583 100.021 56.165C101.778 57.015 103.874 57.44 106.311 57.44C108.578 57.44 110.504 57.1283 112.091 56.505C113.734 55.825 115.349 54.805 116.936 53.445L125.436 62.285C123.226 64.7217 120.506 66.5917 117.276 67.895C114.046 69.1417 110.221 69.765 105.801 69.765ZM136.197 69V5.93H152.347V69H136.197ZM162.843 69V22.93H178.993V69H162.843ZM170.918 17.83C167.971 17.83 165.591 17.0083 163.778 15.365C161.964 13.7217 161.058 11.6817 161.058 9.245C161.058 6.80833 161.964 4.76833 163.778 3.125C165.591 1.48166 167.971 0.659998 170.918 0.659998C173.864 0.659998 176.244 1.45333 178.058 3.04C179.871 4.57 180.778 6.55333 180.778 8.99C180.778 11.54 179.871 13.665 178.058 15.365C176.301 17.0083 173.921 17.83 170.918 17.83ZM213.033 69.765C207.933 69.765 203.372 68.745 199.348 66.705C195.382 64.665 192.265 61.86 189.998 58.29C187.732 54.6633 186.598 50.5267 186.598 45.88C186.598 41.2333 187.732 37.125 189.998 33.555C192.265 29.985 195.382 27.2083 199.348 25.225C203.372 23.185 207.933 22.165 213.033 22.165C218.247 22.165 222.752 23.27 226.548 25.48C230.345 27.69 233.037 30.8067 234.623 34.83L222.128 41.205C221.052 39.0517 219.72 37.4933 218.133 36.53C216.547 35.51 214.818 35 212.948 35C211.078 35 209.378 35.425 207.848 36.275C206.318 37.125 205.1 38.3717 204.193 40.015C203.343 41.6017 202.918 43.5567 202.918 45.88C202.918 48.26 203.343 50.2717 204.193 51.915C205.1 53.5583 206.318 54.805 207.848 55.655C209.378 56.505 211.078 56.93 212.948 56.93C214.818 56.93 216.547 56.4483 218.133 55.485C219.72 54.465 221.052 52.8783 222.128 50.725L234.623 57.1C233.037 61.1233 230.345 64.24 226.548 66.45C222.752 68.66 218.247 69.765 213.033 69.765ZM240.538 69V22.93H256.688V69H240.538ZM248.613 17.83C245.666 17.83 243.286 17.0083 241.473 15.365C239.66 13.7217 238.753 11.6817 238.753 9.245C238.753 6.80833 239.66 4.76833 241.473 3.125C243.286 1.48166 245.666 0.659998 248.613 0.659998C251.56 0.659998 253.94 1.45333 255.753 3.04C257.566 4.57 258.473 6.55333 258.473 8.99C258.473 11.54 257.566 13.665 255.753 15.365C253.996 17.0083 251.616 17.83 248.613 17.83ZM287.754 69.765C281.86 69.765 277.27 68.32 273.984 65.43C270.697 62.4833 269.054 58.0633 269.054 52.17V12.645H285.204V52C285.204 53.6433 285.657 54.9467 286.564 55.91C287.47 56.8167 288.632 57.27 290.049 57.27C291.975 57.27 293.619 56.7883 294.979 55.825L298.974 67.13C297.614 68.0367 295.942 68.6883 293.959 69.085C291.975 69.5383 289.907 69.765 287.754 69.765ZM262.339 36.7V24.63H295.744V36.7H262.339ZM333.336 69V60.415L332.231 58.29V42.48C332.231 39.93 331.438 37.975 329.851 36.615C328.321 35.1983 325.856 34.49 322.456 34.49C320.246 34.49 318.008 34.8583 315.741 35.595C313.474 36.275 311.548 37.2383 309.961 38.485L304.521 27.52C307.128 25.82 310.244 24.5167 313.871 23.61C317.554 22.6467 321.209 22.165 324.836 22.165C332.316 22.165 338.096 23.8933 342.176 27.35C346.313 30.75 348.381 36.105 348.381 43.415V69H333.336ZM319.736 69.765C316.053 69.765 312.936 69.1417 310.386 67.895C307.836 66.6483 305.881 64.9483 304.521 62.795C303.218 60.6417 302.566 58.2333 302.566 55.57C302.566 52.7367 303.274 50.3 304.691 48.26C306.164 46.1633 308.403 44.5767 311.406 43.5C314.409 42.3667 318.291 41.8 323.051 41.8H333.931V50.215H325.261C322.654 50.215 320.813 50.64 319.736 51.49C318.716 52.34 318.206 53.4733 318.206 54.89C318.206 56.3067 318.744 57.44 319.821 58.29C320.898 59.14 322.371 59.565 324.241 59.565C325.998 59.565 327.584 59.14 329.001 58.29C330.474 57.3833 331.551 56.0233 332.231 54.21L334.441 60.16C333.591 63.3333 331.919 65.7417 329.426 67.385C326.989 68.9717 323.759 69.765 319.736 69.765ZM382.701 69.765C377.601 69.765 373.04 68.745 369.016 66.705C365.05 64.665 361.933 61.86 359.666 58.29C357.4 54.6633 356.266 50.5267 356.266 45.88C356.266 41.2333 357.4 37.125 359.666 33.555C361.933 29.985 365.05 27.2083 369.016 25.225C373.04 23.185 377.601 22.165 382.701 22.165C387.915 22.165 392.42 23.27 396.216 25.48C400.013 27.69 402.705 30.8067 404.291 34.83L391.796 41.205C390.72 39.0517 389.388 37.4933 387.801 36.53C386.215 35.51 384.486 35 382.616 35C380.746 35 379.046 35.425 377.516 36.275C375.986 37.125 374.768 38.3717 373.861 40.015C373.011 41.6017 372.586 43.5567 372.586 45.88C372.586 48.26 373.011 50.2717 373.861 51.915C374.768 53.5583 375.986 54.805 377.516 55.655C379.046 56.505 380.746 56.93 382.616 56.93C384.486 56.93 386.215 56.4483 387.801 55.485C389.388 54.465 390.72 52.8783 391.796 50.725L404.291 57.1C402.705 61.1233 400.013 64.24 396.216 66.45C392.42 68.66 387.915 69.765 382.701 69.765ZM410.206 69V22.93H426.356V69H410.206ZM418.281 17.83C415.334 17.83 412.954 17.0083 411.141 15.365C409.328 13.7217 408.421 11.6817 408.421 9.245C408.421 6.80833 409.328 4.76833 411.141 3.125C412.954 1.48166 415.334 0.659998 418.281 0.659998C421.228 0.659998 423.608 1.45333 425.421 3.04C427.234 4.57 428.141 6.55333 428.141 8.99C428.141 11.54 427.234 13.665 425.421 15.365C423.664 17.0083 421.284 17.83 418.281 17.83ZM459.972 69.765C454.928 69.765 450.452 68.745 446.542 66.705C442.632 64.665 439.543 61.86 437.277 58.29C435.067 54.6633 433.962 50.5267 433.962 45.88C433.962 41.2333 435.067 37.125 437.277 33.555C439.543 29.985 442.632 27.2083 446.542 25.225C450.452 23.185 454.928 22.165 459.972 22.165C465.015 22.165 469.492 23.185 473.402 25.225C477.368 27.2083 480.457 29.985 482.667 33.555C484.877 37.125 485.982 41.2333 485.982 45.88C485.982 50.5267 484.877 54.6633 482.667 58.29C480.457 61.86 477.368 64.665 473.402 66.705C469.492 68.745 465.015 69.765 459.972 69.765ZM459.972 56.93C461.842 56.93 463.485 56.505 464.902 55.655C466.375 54.805 467.537 53.5583 468.387 51.915C469.237 50.215 469.662 48.2033 469.662 45.88C469.662 43.5567 469.237 41.6017 468.387 40.015C467.537 38.3717 466.375 37.125 464.902 36.275C463.485 35.425 461.842 35 459.972 35C458.158 35 456.515 35.425 455.042 36.275C453.625 37.125 452.463 38.3717 451.557 40.015C450.707 41.6017 450.282 43.5567 450.282 45.88C450.282 48.2033 450.707 50.215 451.557 51.915C452.463 53.5583 453.625 54.805 455.042 55.655C456.515 56.505 458.158 56.93 459.972 56.93ZM523.468 22.165C527.038 22.165 530.268 22.9017 533.158 24.375C536.048 25.7917 538.315 28.0017 539.958 31.005C541.658 34.0083 542.508 37.89 542.508 42.65V69H526.358V45.285C526.358 41.9983 525.678 39.6183 524.318 38.145C523.015 36.615 521.173 35.85 518.793 35.85C517.093 35.85 515.535 36.2467 514.118 37.04C512.701 37.7767 511.596 38.9383 510.803 40.525C510.01 42.1117 509.613 44.18 509.613 46.73V69H493.463V22.93H508.848V36.02L505.873 32.195C507.629 28.8517 510.038 26.3583 513.098 24.715C516.158 23.015 519.615 22.165 523.468 22.165ZM577.368 69.765C571.928 69.765 567.168 68.745 563.088 66.705C559.065 64.6083 555.92 61.775 553.653 58.205C551.443 54.5783 550.338 50.47 550.338 45.88C550.338 41.29 551.415 37.21 553.568 33.64C555.778 30.0133 558.81 27.2083 562.663 25.225C566.517 23.185 570.852 22.165 575.668 22.165C580.202 22.165 584.338 23.1 588.078 24.97C591.818 26.7833 594.793 29.475 597.003 33.045C599.213 36.615 600.318 40.95 600.318 46.05C600.318 46.6167 600.29 47.2683 600.233 48.005C600.177 48.7417 600.12 49.4217 600.063 50.045H563.598V41.545H591.478L585.358 43.925C585.415 41.8283 585.018 40.015 584.168 38.485C583.375 36.955 582.242 35.765 580.768 34.915C579.352 34.065 577.68 33.64 575.753 33.64C573.827 33.64 572.127 34.065 570.653 34.915C569.237 35.765 568.132 36.9833 567.338 38.57C566.545 40.1 566.148 41.9133 566.148 44.01V46.475C566.148 48.7417 566.602 50.6967 567.508 52.34C568.472 53.9833 569.832 55.2583 571.588 56.165C573.345 57.015 575.442 57.44 577.878 57.44C580.145 57.44 582.072 57.1283 583.658 56.505C585.302 55.825 586.917 54.805 588.503 53.445L597.003 62.285C594.793 64.7217 592.073 66.5917 588.843 67.895C585.613 69.1417 581.788 69.765 577.368 69.765ZM624.51 69.765C620.6 69.765 616.775 69.3117 613.035 68.405C609.351 67.4983 606.376 66.365 604.11 65.005L608.955 53.955C611.108 55.2583 613.63 56.3067 616.52 57.1C619.41 57.8367 622.243 58.205 625.02 58.205C627.74 58.205 629.61 57.9217 630.63 57.355C631.706 56.7883 632.245 56.0233 632.245 55.06C632.245 54.1533 631.735 53.5017 630.715 53.105C629.751 52.6517 628.448 52.3117 626.805 52.085C625.218 51.8583 623.461 51.6033 621.535 51.32C619.608 51.0367 617.653 50.6683 615.67 50.215C613.743 49.705 611.958 48.9683 610.315 48.005C608.728 46.985 607.453 45.625 606.49 43.925C605.526 42.225 605.045 40.0717 605.045 37.465C605.045 34.5183 605.895 31.9117 607.595 29.645C609.351 27.3217 611.901 25.5083 615.245 24.205C618.588 22.845 622.668 22.165 627.485 22.165C630.715 22.165 633.973 22.505 637.26 23.185C640.603 23.8083 643.408 24.7717 645.675 26.075L640.83 37.04C638.563 35.7367 636.296 34.8583 634.03 34.405C631.763 33.895 629.61 33.64 627.57 33.64C624.85 33.64 622.923 33.9517 621.79 34.575C620.713 35.1983 620.175 35.9633 620.175 36.87C620.175 37.7767 620.656 38.485 621.62 38.995C622.583 39.4483 623.858 39.8167 625.445 40.1C627.088 40.3267 628.873 40.5817 630.8 40.865C632.726 41.0917 634.653 41.46 636.58 41.97C638.563 42.48 640.348 43.245 641.935 44.265C643.578 45.2283 644.881 46.56 645.845 48.26C646.808 49.9033 647.29 52.0283 647.29 54.635C647.29 57.4683 646.411 60.0183 644.655 62.285C642.955 64.5517 640.405 66.365 637.005 67.725C633.661 69.085 629.496 69.765 624.51 69.765ZM655.439 47.325L652.294 9.5H671.504L668.274 47.325H655.439ZM661.899 69.765C659.066 69.765 656.742 68.8867 654.929 67.13C653.116 65.3733 652.209 63.2767 652.209 60.84C652.209 58.3467 653.116 56.2783 654.929 54.635C656.742 52.935 659.066 52.085 661.899 52.085C664.732 52.085 667.027 52.935 668.784 54.635C670.597 56.2783 671.504 58.3467 671.504 60.84C671.504 63.2767 670.597 65.3733 668.784 67.13C667.027 68.8867 664.732 69.765 661.899 69.765ZM144.889 157V97.5H161.719V143.655H190.109V157H144.889ZM218.958 157.765C213.915 157.765 209.438 156.745 205.528 154.705C201.618 152.665 198.53 149.86 196.263 146.29C194.053 142.663 192.948 138.527 192.948 133.88C192.948 129.233 194.053 125.125 196.263 121.555C198.53 117.985 201.618 115.208 205.528 113.225C209.438 111.185 213.915 110.165 218.958 110.165C224.002 110.165 228.478 111.185 232.388 113.225C236.355 115.208 239.443 117.985 241.653 121.555C243.863 125.125 244.968 129.233 244.968 133.88C244.968 138.527 243.863 142.663 241.653 146.29C239.443 149.86 236.355 152.665 232.388 154.705C228.478 156.745 224.002 157.765 218.958 157.765ZM218.958 144.93C220.828 144.93 222.472 144.505 223.888 143.655C225.362 142.805 226.523 141.558 227.373 139.915C228.223 138.215 228.648 136.203 228.648 133.88C228.648 131.557 228.223 129.602 227.373 128.015C226.523 126.372 225.362 125.125 223.888 124.275C222.472 123.425 220.828 123 218.958 123C217.145 123 215.502 123.425 214.028 124.275C212.612 125.125 211.45 126.372 210.543 128.015C209.693 129.602 209.268 131.557 209.268 133.88C209.268 136.203 209.693 138.215 210.543 139.915C211.45 141.558 212.612 142.805 214.028 143.655C215.502 144.505 217.145 144.93 218.958 144.93ZM274.975 174.255C270.555 174.255 266.333 173.745 262.31 172.725C258.343 171.705 254.943 170.203 252.11 168.22L257.975 156.915C259.901 158.445 262.281 159.635 265.115 160.485C268.005 161.392 270.81 161.845 273.53 161.845C277.893 161.845 281.038 160.882 282.965 158.955C284.891 157.085 285.855 154.337 285.855 150.71V145.27L286.705 132.35L286.62 119.345V110.93H302.005V148.585C302.005 157.312 299.653 163.772 294.95 167.965C290.246 172.158 283.588 174.255 274.975 174.255ZM272.17 154.62C268.09 154.62 264.321 153.713 260.865 151.9C257.465 150.03 254.716 147.452 252.62 144.165C250.58 140.822 249.56 136.883 249.56 132.35C249.56 127.817 250.58 123.907 252.62 120.62C254.716 117.277 257.465 114.698 260.865 112.885C264.321 111.072 268.09 110.165 272.17 110.165C276.08 110.165 279.423 110.958 282.2 112.545C284.976 114.075 287.073 116.483 288.49 119.77C289.963 123.057 290.7 127.25 290.7 132.35C290.7 137.45 289.963 141.643 288.49 144.93C287.073 148.217 284.976 150.653 282.2 152.24C279.423 153.827 276.08 154.62 272.17 154.62ZM275.995 141.785C277.921 141.785 279.621 141.388 281.095 140.595C282.625 139.802 283.815 138.697 284.665 137.28C285.571 135.863 286.025 134.22 286.025 132.35C286.025 130.48 285.571 128.837 284.665 127.42C283.815 126.003 282.625 124.927 281.095 124.19C279.621 123.397 277.921 123 275.995 123C274.068 123 272.34 123.397 270.81 124.19C269.28 124.927 268.061 126.003 267.155 127.42C266.305 128.837 265.88 130.48 265.88 132.35C265.88 134.22 266.305 135.863 267.155 137.28C268.061 138.697 269.28 139.802 270.81 140.595C272.34 141.388 274.068 141.785 275.995 141.785ZM312.381 157V110.93H327.766V124.36L325.471 120.535C326.831 117.078 329.041 114.5 332.101 112.8C335.161 111.043 338.873 110.165 343.236 110.165V124.7C342.5 124.587 341.848 124.53 341.281 124.53C340.771 124.473 340.205 124.445 339.581 124.445C336.295 124.445 333.631 125.352 331.591 127.165C329.551 128.922 328.531 131.812 328.531 135.835V157H312.381ZM375.297 157V148.415L374.192 146.29V130.48C374.192 127.93 373.398 125.975 371.812 124.615C370.282 123.198 367.817 122.49 364.417 122.49C362.207 122.49 359.968 122.858 357.702 123.595C355.435 124.275 353.508 125.238 351.922 126.485L346.482 115.52C349.088 113.82 352.205 112.517 355.832 111.61C359.515 110.647 363.17 110.165 366.797 110.165C374.277 110.165 380.057 111.893 384.137 115.35C388.273 118.75 390.342 124.105 390.342 131.415V157H375.297ZM361.697 157.765C358.013 157.765 354.897 157.142 352.347 155.895C349.797 154.648 347.842 152.948 346.482 150.795C345.178 148.642 344.527 146.233 344.527 143.57C344.527 140.737 345.235 138.3 346.652 136.26C348.125 134.163 350.363 132.577 353.367 131.5C356.37 130.367 360.252 129.8 365.012 129.8H375.892V138.215H367.222C364.615 138.215 362.773 138.64 361.697 139.49C360.677 140.34 360.167 141.473 360.167 142.89C360.167 144.307 360.705 145.44 361.782 146.29C362.858 147.14 364.332 147.565 366.202 147.565C367.958 147.565 369.545 147.14 370.962 146.29C372.435 145.383 373.512 144.023 374.192 142.21L376.402 148.16C375.552 151.333 373.88 153.742 371.387 155.385C368.95 156.972 365.72 157.765 361.697 157.765ZM417.281 157.765C413.371 157.765 409.546 157.312 405.806 156.405C402.122 155.498 399.147 154.365 396.881 153.005L401.726 141.955C403.879 143.258 406.401 144.307 409.291 145.1C412.181 145.837 415.014 146.205 417.791 146.205C420.511 146.205 422.381 145.922 423.401 145.355C424.477 144.788 425.016 144.023 425.016 143.06C425.016 142.153 424.506 141.502 423.486 141.105C422.522 140.652 421.219 140.312 419.576 140.085C417.989 139.858 416.232 139.603 414.306 139.32C412.379 139.037 410.424 138.668 408.441 138.215C406.514 137.705 404.729 136.968 403.086 136.005C401.499 134.985 400.224 133.625 399.261 131.925C398.297 130.225 397.816 128.072 397.816 125.465C397.816 122.518 398.666 119.912 400.366 117.645C402.122 115.322 404.672 113.508 408.016 112.205C411.359 110.845 415.439 110.165 420.256 110.165C423.486 110.165 426.744 110.505 430.031 111.185C433.374 111.808 436.179 112.772 438.446 114.075L433.601 125.04C431.334 123.737 429.067 122.858 426.801 122.405C424.534 121.895 422.381 121.64 420.341 121.64C417.621 121.64 415.694 121.952 414.561 122.575C413.484 123.198 412.946 123.963 412.946 124.87C412.946 125.777 413.427 126.485 414.391 126.995C415.354 127.448 416.629 127.817 418.216 128.1C419.859 128.327 421.644 128.582 423.571 128.865C425.497 129.092 427.424 129.46 429.351 129.97C431.334 130.48 433.119 131.245 434.706 132.265C436.349 133.228 437.652 134.56 438.616 136.26C439.579 137.903 440.061 140.028 440.061 142.635C440.061 145.468 439.182 148.018 437.426 150.285C435.726 152.552 433.176 154.365 429.776 155.725C426.432 157.085 422.267 157.765 417.281 157.765ZM467.59 157.765C461.697 157.765 457.107 156.32 453.82 153.43C450.533 150.483 448.89 146.063 448.89 140.17V100.645H465.04V140C465.04 141.643 465.493 142.947 466.4 143.91C467.307 144.817 468.468 145.27 469.885 145.27C471.812 145.27 473.455 144.788 474.815 143.825L478.81 155.13C477.45 156.037 475.778 156.688 473.795 157.085C471.812 157.538 469.743 157.765 467.59 157.765ZM442.175 124.7V112.63H475.58V124.7H442.175ZM507.849 157.765C502.409 157.765 497.649 156.745 493.569 154.705C489.546 152.608 486.401 149.775 484.134 146.205C481.924 142.578 480.819 138.47 480.819 133.88C480.819 129.29 481.896 125.21 484.049 121.64C486.259 118.013 489.291 115.208 493.144 113.225C496.998 111.185 501.333 110.165 506.149 110.165C510.683 110.165 514.819 111.1 518.559 112.97C522.299 114.783 525.274 117.475 527.484 121.045C529.694 124.615 530.799 128.95 530.799 134.05C530.799 134.617 530.771 135.268 530.714 136.005C530.658 136.742 530.601 137.422 530.544 138.045H494.079V129.545H521.959L515.839 131.925C515.896 129.828 515.499 128.015 514.649 126.485C513.856 124.955 512.723 123.765 511.249 122.915C509.833 122.065 508.161 121.64 506.234 121.64C504.308 121.64 502.608 122.065 501.134 122.915C499.718 123.765 498.613 124.983 497.819 126.57C497.026 128.1 496.629 129.913 496.629 132.01V134.475C496.629 136.742 497.083 138.697 497.989 140.34C498.953 141.983 500.313 143.258 502.069 144.165C503.826 145.015 505.923 145.44 508.359 145.44C510.626 145.44 512.553 145.128 514.139 144.505C515.783 143.825 517.398 142.805 518.984 141.445L527.484 150.285C525.274 152.722 522.554 154.592 519.324 155.895C516.094 157.142 512.269 157.765 507.849 157.765Z" fill="white"/>
</svg>
