<svg width="213" height="66" viewBox="0 0 213 66" fill="none" xmlns="http://www.w3.org/2000/svg">
<path d="M14.2447 33.336L16.9807 65.088H0.708656L3.37266 33.336H14.2447ZM8.84466 14.328C11.2447 14.328 13.1887 15.072 14.6767 16.56C16.2127 18 16.9807 19.776 16.9807 21.888C16.9807 23.952 16.2127 25.704 14.6767 27.144C13.1887 28.584 11.2447 29.304 8.84466 29.304C6.44466 29.304 4.47666 28.584 2.94066 27.144C1.40466 25.704 0.636656 23.952 0.636656 21.888C0.636656 19.776 1.40466 18 2.94066 16.56C4.47666 15.072 6.44466 14.328 8.84466 14.328ZM58.3649 3.6H72.6209V54H58.3649V3.6ZM38.9249 54H24.6689V3.6H38.9249V54ZM59.3729 34.344H37.9169V22.536H59.3729V34.344ZM101.613 54.648C97.3407 54.648 93.5487 53.784 90.2367 52.056C86.9247 50.328 84.3087 47.952 82.3887 44.928C80.5167 41.856 79.5807 38.352 79.5807 34.416C79.5807 30.48 80.5167 27 82.3887 23.976C84.3087 20.952 86.9247 18.6 90.2367 16.92C93.5487 15.192 97.3407 14.328 101.613 14.328C105.885 14.328 109.677 15.192 112.989 16.92C116.349 18.6 118.965 20.952 120.837 23.976C122.709 27 123.645 30.48 123.645 34.416C123.645 38.352 122.709 41.856 120.837 44.928C118.965 47.952 116.349 50.328 112.989 52.056C109.677 53.784 105.885 54.648 101.613 54.648ZM101.613 43.776C103.197 43.776 104.589 43.416 105.789 42.696C107.037 41.976 108.021 40.92 108.741 39.528C109.461 38.088 109.821 36.384 109.821 34.416C109.821 32.448 109.461 30.792 108.741 29.448C108.021 28.056 107.037 27 105.789 26.28C104.589 25.56 103.197 25.2 101.613 25.2C100.077 25.2 98.6847 25.56 97.4367 26.28C96.2367 27 95.2527 28.056 94.4847 29.448C93.7647 30.792 93.4047 32.448 93.4047 34.416C93.4047 36.384 93.7647 38.088 94.4847 39.528C95.2527 40.92 96.2367 41.976 97.4367 42.696C98.6847 43.416 100.077 43.776 101.613 43.776ZM129.982 54V0.575997H143.662V54H129.982ZM176.384 54V46.728L175.448 44.928V31.536C175.448 29.376 174.776 27.72 173.432 26.568C172.136 25.368 170.048 24.768 167.168 24.768C165.296 24.768 163.4 25.08 161.48 25.704C159.56 26.28 157.928 27.096 156.584 28.152L151.976 18.864C154.184 17.424 156.824 16.32 159.896 15.552C163.016 14.736 166.112 14.328 169.184 14.328C175.52 14.328 180.416 15.792 183.872 18.72C187.376 21.6 189.128 26.136 189.128 32.328V54H176.384ZM164.864 54.648C161.744 54.648 159.104 54.12 156.944 53.064C154.784 52.008 153.128 50.568 151.976 48.744C150.872 46.92 150.32 44.88 150.32 42.624C150.32 40.224 150.92 38.16 152.12 36.432C153.368 34.656 155.264 33.312 157.808 32.4C160.352 31.44 163.64 30.96 167.672 30.96H176.888V38.088H169.544C167.336 38.088 165.776 38.448 164.864 39.168C164 39.888 163.568 40.848 163.568 42.048C163.568 43.248 164.024 44.208 164.936 44.928C165.848 45.648 167.096 46.008 168.68 46.008C170.168 46.008 171.512 45.648 172.712 44.928C173.96 44.16 174.872 43.008 175.448 41.472L177.32 46.512C176.6 49.2 175.184 51.24 173.072 52.632C171.008 53.976 168.272 54.648 164.864 54.648ZM198.771 35.64L196.107 3.6H212.379L209.643 35.64H198.771ZM204.243 54.648C201.843 54.648 199.875 53.904 198.339 52.416C196.803 50.928 196.035 49.152 196.035 47.088C196.035 44.976 196.803 43.224 198.339 41.832C199.875 40.392 201.843 39.672 204.243 39.672C206.643 39.672 208.587 40.392 210.075 41.832C211.611 43.224 212.379 44.976 212.379 47.088C212.379 49.152 211.611 50.928 210.075 52.416C208.587 53.904 206.643 54.648 204.243 54.648Z" fill="white"/>
</svg>
