<svg width="608" height="94" viewBox="0 0 608 94" fill="none" xmlns="http://www.w3.org/2000/svg">
<path d="M0.570445 3.4H3.87645V30H0.570445V3.4ZM9.95645 9.974H13.2244V13.584H13.5284C14.0351 12.4187 14.8584 11.4433 15.9984 10.658C17.1384 9.84733 18.5318 9.442 20.1784 9.442C21.8758 9.442 23.2944 9.84733 24.4344 10.658C25.5744 11.4433 26.4104 12.4947 26.9424 13.812C27.4998 15.104 27.7784 16.51 27.7784 18.03V30H24.5104V18.448C24.5104 16.472 23.9911 14.9647 22.9524 13.926C21.9391 12.8873 20.6091 12.368 18.9624 12.368C17.2144 12.368 15.8211 12.938 14.7824 14.078C13.7438 15.1927 13.2244 16.6493 13.2244 18.448V30H9.95645V9.974ZM42.3034 38.018C41.5434 38.018 40.9227 37.9673 40.4414 37.866C39.9854 37.7647 39.5167 37.6253 39.0354 37.448V34.712C39.3647 34.8133 39.808 34.902 40.3654 34.978C40.9227 35.0793 41.4674 35.13 41.9994 35.13C43.9754 35.13 45.4574 34.5727 46.4454 33.458C47.4587 32.3433 47.9654 30.8613 47.9654 29.012V25.402H47.6614C47.1294 26.5927 46.268 27.606 45.0774 28.442C43.912 29.2527 42.4934 29.658 40.8214 29.658C39.1494 29.658 37.68 29.2273 36.4134 28.366C35.1467 27.5047 34.1587 26.314 33.4494 24.794C32.7654 23.2487 32.4234 21.488 32.4234 19.512C32.4234 17.536 32.7654 15.788 33.4494 14.268C34.1587 12.7227 35.1467 11.5193 36.4134 10.658C37.68 9.79667 39.1494 9.366 40.8214 9.366C42.5694 9.366 44.026 9.822 45.1914 10.734C46.382 11.6207 47.218 12.6593 47.6994 13.85H47.9654V10.012H51.2714V29.012C51.2714 30.4307 50.98 31.824 50.3974 33.192C49.84 34.56 48.89 35.7 47.5474 36.612C46.2047 37.5493 44.4567 38.018 42.3034 38.018ZM41.8854 26.846C43.1774 26.846 44.2794 26.504 45.1914 25.82C46.1034 25.1107 46.7747 24.1987 47.2054 23.084C47.6614 21.944 47.8894 20.728 47.8894 19.436C47.8894 18.1693 47.6614 16.9913 47.2054 15.902C46.7747 14.8127 46.1034 13.926 45.1914 13.242C44.3047 12.558 43.2027 12.216 41.8854 12.216C39.9347 12.216 38.44 12.9253 37.4014 14.344C36.388 15.7373 35.8814 17.4347 35.8814 19.436C35.8814 20.7533 36.0967 21.982 36.5274 23.122C36.9834 24.2367 37.6547 25.136 38.5414 25.82C39.4534 26.504 40.568 26.846 41.8854 26.846ZM56.822 9.974H60.09V13.166H60.318C60.6474 12.2793 61.23 11.532 62.066 10.924C62.9274 10.2907 64.004 9.974 65.296 9.974C65.7014 9.974 66.018 9.99933 66.246 10.05C66.4994 10.0753 66.778 10.1387 67.082 10.24L66.968 13.432C66.5627 13.3053 66.208 13.2167 65.904 13.166C65.6254 13.1153 65.258 13.09 64.802 13.09C61.6607 13.09 60.09 14.952 60.09 18.676V30H56.822V9.974ZM78.5467 30.266C76.4947 30.266 74.7594 29.772 73.3407 28.784C71.9474 27.796 70.9087 26.504 70.2247 24.908C69.5407 23.312 69.1987 21.6273 69.1987 19.854C69.1987 18.0553 69.5407 16.3707 70.2247 14.8C70.9087 13.204 71.9601 11.912 73.3787 10.924C74.7974 9.936 76.5327 9.442 78.5847 9.442C81.2701 9.442 83.4107 10.3413 85.0067 12.14C86.6281 13.9387 87.4387 16.5227 87.4387 19.892V20.804H72.4667V21.07C72.4667 22.1847 72.7201 23.236 73.2267 24.224C73.7334 25.212 74.4427 26.01 75.3547 26.618C76.2667 27.226 77.3181 27.53 78.5087 27.53C79.8007 27.53 80.9154 27.2007 81.8527 26.542C82.7901 25.8833 83.4867 24.9967 83.9427 23.882H87.1727C86.6407 25.706 85.6401 27.226 84.1707 28.442C82.7267 29.658 80.8521 30.266 78.5467 30.266ZM84.2087 18.486C84.1074 16.206 83.5501 14.5593 82.5367 13.546C81.5234 12.5327 80.1934 12.026 78.5467 12.026C76.7481 12.026 75.3167 12.6213 74.2527 13.812C73.1887 15.0027 72.6187 16.5607 72.5427 18.486H84.2087ZM99.105 30.266C97.4837 30.266 96.0777 29.9493 94.887 29.316C93.6964 28.6573 92.7844 27.8213 92.151 26.808C91.543 25.7947 91.239 24.7307 91.239 23.616V23.426H94.507V23.578C94.507 24.2113 94.6844 24.8447 95.039 25.478C95.3937 26.086 95.9257 26.5927 96.635 26.998C97.3444 27.378 98.2057 27.568 99.219 27.568C100.435 27.568 101.436 27.2767 102.221 26.694C103.032 26.086 103.437 25.2627 103.437 24.224C103.437 23.3627 103.12 22.6787 102.487 22.172C101.879 21.6653 101.106 21.336 100.169 21.184L97.547 20.804C95.9004 20.5507 94.5197 19.9933 93.405 19.132C92.2904 18.2453 91.733 16.966 91.733 15.294C91.733 13.4447 92.3917 12.0133 93.709 11C95.0517 9.96133 96.7617 9.442 98.839 9.442C100.384 9.442 101.702 9.73333 102.791 10.316C103.906 10.8733 104.754 11.6207 105.337 12.558C105.92 13.47 106.211 14.4707 106.211 15.56V15.712H102.943V15.636C102.943 15.1293 102.804 14.5973 102.525 14.04C102.272 13.4827 101.828 13.0013 101.195 12.596C100.562 12.1907 99.751 11.988 98.763 11.988C97.547 11.988 96.5717 12.292 95.837 12.9C95.1024 13.4827 94.735 14.2553 94.735 15.218C94.735 16.0033 95.0264 16.6493 95.609 17.156C96.1917 17.6627 96.9264 17.992 97.813 18.144L100.663 18.6C102.335 18.8787 103.741 19.4613 104.881 20.348C106.021 21.2093 106.591 22.4887 106.591 24.186C106.591 25.402 106.262 26.466 105.603 27.378C104.97 28.29 104.083 28.9993 102.943 29.506C101.803 30.0127 100.524 30.266 99.105 30.266ZM118.451 30.266C116.677 30.266 115.157 29.81 113.891 28.898C112.649 27.986 111.699 26.7447 111.041 25.174C110.382 23.6033 110.053 21.83 110.053 19.854C110.053 17.878 110.382 16.1047 111.041 14.534C111.725 12.938 112.7 11.6967 113.967 10.81C115.259 9.898 116.791 9.442 118.565 9.442C120.338 9.442 121.769 9.86 122.859 10.696C123.948 11.532 124.771 12.5327 125.329 13.698H125.595V9.974H128.901V30H125.595V25.896H125.329C124.721 27.0867 123.859 28.1127 122.745 28.974C121.63 29.8353 120.199 30.266 118.451 30.266ZM119.477 27.454C121.427 27.454 122.922 26.732 123.961 25.288C124.999 23.8187 125.519 22.0073 125.519 19.854C125.519 17.7007 124.999 15.902 123.961 14.458C122.922 12.9887 121.427 12.254 119.477 12.254C117.475 12.254 115.955 12.976 114.917 14.42C113.903 15.864 113.397 17.6627 113.397 19.816C113.397 21.9947 113.903 23.8187 114.917 25.288C115.955 26.732 117.475 27.454 119.477 27.454ZM148.797 12.596V24.224C148.797 25.1613 148.835 25.858 148.911 26.314C149.012 26.7447 149.253 27.0867 149.633 27.34C150.038 27.5933 150.684 27.72 151.571 27.72C152.179 27.72 152.838 27.6313 153.547 27.454V29.81C153.37 29.886 152.977 29.962 152.369 30.038C151.786 30.114 151.178 30.152 150.545 30.152C149.076 30.152 147.974 29.9493 147.239 29.544C146.53 29.1133 146.061 28.5433 145.833 27.834C145.63 27.0993 145.529 26.1367 145.529 24.946V12.596H141.805V9.974H145.529V3.4H148.797V9.974H153.547V12.596H148.797ZM175.799 30H172.493V26.2H172.265C171.733 27.3653 170.91 28.3533 169.795 29.164C168.706 29.9493 167.363 30.342 165.767 30.342C164.095 30.342 162.702 29.9367 161.587 29.126C160.472 28.3153 159.649 27.264 159.117 25.972C158.61 24.68 158.357 23.274 158.357 21.754V9.974H161.625V21.336C161.625 23.2867 162.119 24.794 163.107 25.858C164.095 26.8967 165.387 27.416 166.983 27.416C168.655 27.416 169.985 26.8587 170.973 25.744C171.986 24.604 172.493 23.1347 172.493 21.336V9.974H175.799V30ZM198.524 30.266C196.447 30.266 194.686 29.772 193.242 28.784C191.823 27.796 190.772 26.5167 190.088 24.946C189.404 23.35 189.062 21.6527 189.062 19.854C189.062 18.0553 189.404 16.3707 190.088 14.8C190.772 13.204 191.823 11.912 193.242 10.924C194.686 9.936 196.447 9.442 198.524 9.442C201.108 9.442 203.135 10.1893 204.604 11.684C206.099 13.1787 206.998 15.0153 207.302 17.194H204.11C203.882 15.7247 203.299 14.534 202.362 13.622C201.425 12.6847 200.158 12.216 198.562 12.216C196.535 12.216 194.99 12.9507 193.926 14.42C192.887 15.864 192.368 17.6753 192.368 19.854C192.368 22.0327 192.887 23.8567 193.926 25.326C194.99 26.77 196.535 27.492 198.562 27.492C200.158 27.492 201.425 27.036 202.362 26.124C203.299 25.212 203.882 24.0087 204.11 22.514H207.302C206.998 24.6927 206.099 26.5293 204.604 28.024C203.135 29.5187 201.108 30.266 198.524 30.266ZM220.343 30.266C218.316 30.266 216.593 29.7847 215.175 28.822C213.781 27.834 212.73 26.5547 212.021 24.984C211.311 23.388 210.957 21.678 210.957 19.854C210.957 18.03 211.311 16.3327 212.021 14.762C212.73 13.166 213.781 11.8867 215.175 10.924C216.593 9.936 218.316 9.442 220.343 9.442C222.369 9.442 224.079 9.936 225.473 10.924C226.891 11.8867 227.943 13.166 228.627 14.762C229.336 16.358 229.691 18.0553 229.691 19.854C229.691 21.6527 229.336 23.35 228.627 24.946C227.917 26.542 226.853 27.834 225.435 28.822C224.041 29.7847 222.344 30.266 220.343 30.266ZM220.343 27.454C221.584 27.454 222.661 27.112 223.573 26.428C224.51 25.744 225.219 24.832 225.701 23.692C226.182 22.5267 226.423 21.2347 226.423 19.816C226.423 17.6373 225.878 15.826 224.789 14.382C223.699 12.938 222.217 12.216 220.343 12.216C219.076 12.216 217.974 12.558 217.037 13.242C216.125 13.926 215.428 14.8507 214.947 16.016C214.465 17.156 214.225 18.4227 214.225 19.816C214.225 21.9947 214.769 23.8187 215.859 25.288C216.948 26.732 218.443 27.454 220.343 27.454ZM234.316 9.974H237.584V13.166H237.812C238.141 12.2793 238.724 11.532 239.56 10.924C240.421 10.2907 241.498 9.974 242.79 9.974C243.195 9.974 243.512 9.99933 243.74 10.05C243.993 10.0753 244.272 10.1387 244.576 10.24L244.462 13.432C244.057 13.3053 243.702 13.2167 243.398 13.166C243.119 13.1153 242.752 13.09 242.296 13.09C239.155 13.09 237.584 14.952 237.584 18.676V30H234.316V9.974ZM247.713 9.974H250.981V13.166H251.209C251.538 12.2793 252.121 11.532 252.957 10.924C253.818 10.2907 254.895 9.974 256.187 9.974C256.592 9.974 256.909 9.99933 257.137 10.05C257.39 10.0753 257.669 10.1387 257.973 10.24L257.859 13.432C257.453 13.3053 257.099 13.2167 256.795 13.166C256.516 13.1153 256.149 13.09 255.693 13.09C252.551 13.09 250.981 14.952 250.981 18.676V30H247.713V9.974ZM269.437 30.266C267.385 30.266 265.65 29.772 264.231 28.784C262.838 27.796 261.799 26.504 261.115 24.908C260.431 23.312 260.089 21.6273 260.089 19.854C260.089 18.0553 260.431 16.3707 261.115 14.8C261.799 13.204 262.851 11.912 264.269 10.924C265.688 9.936 267.423 9.442 269.475 9.442C272.161 9.442 274.301 10.3413 275.897 12.14C277.519 13.9387 278.329 16.5227 278.329 19.892V20.804H263.357V21.07C263.357 22.1847 263.611 23.236 264.117 24.224C264.624 25.212 265.333 26.01 266.245 26.618C267.157 27.226 268.209 27.53 269.399 27.53C270.691 27.53 271.806 27.2007 272.743 26.542C273.681 25.8833 274.377 24.9967 274.833 23.882H278.063C277.531 25.706 276.531 27.226 275.061 28.442C273.617 29.658 271.743 30.266 269.437 30.266ZM275.099 18.486C274.998 16.206 274.441 14.5593 273.427 13.546C272.414 12.5327 271.084 12.026 269.437 12.026C267.639 12.026 266.207 12.6213 265.143 13.812C264.079 15.0027 263.509 16.5607 263.433 18.486H275.099ZM291.63 30.266C289.603 30.266 287.88 29.7847 286.462 28.822C285.068 27.834 284.017 26.5547 283.308 24.984C282.598 23.388 282.244 21.678 282.244 19.854C282.244 18.03 282.598 16.3327 283.308 14.762C284.017 13.166 285.068 11.8867 286.462 10.924C287.88 9.936 289.603 9.442 291.63 9.442C293.656 9.442 295.366 9.936 296.76 10.924C298.178 11.8867 299.23 13.166 299.914 14.762C300.623 16.358 300.978 18.0553 300.978 19.854C300.978 21.6527 300.623 23.35 299.914 24.946C299.204 26.542 298.14 27.834 296.722 28.822C295.328 29.7847 293.631 30.266 291.63 30.266ZM291.63 27.454C292.871 27.454 293.948 27.112 294.86 26.428C295.797 25.744 296.506 24.832 296.988 23.692C297.469 22.5267 297.71 21.2347 297.71 19.816C297.71 17.6373 297.165 15.826 296.076 14.382C294.986 12.938 293.504 12.216 291.63 12.216C290.363 12.216 289.261 12.558 288.324 13.242C287.412 13.926 286.715 14.8507 286.234 16.016C285.752 17.156 285.512 18.4227 285.512 19.816C285.512 21.9947 286.056 23.8187 287.146 25.288C288.235 26.732 289.73 27.454 291.63 27.454ZM322.949 30.266C320.897 30.266 319.162 29.772 317.743 28.784C316.35 27.796 315.311 26.504 314.627 24.908C313.943 23.312 313.601 21.6273 313.601 19.854C313.601 18.0553 313.943 16.3707 314.627 14.8C315.311 13.204 316.362 11.912 317.781 10.924C319.2 9.936 320.935 9.442 322.987 9.442C325.672 9.442 327.813 10.3413 329.409 12.14C331.03 13.9387 331.841 16.5227 331.841 19.892V20.804H316.869V21.07C316.869 22.1847 317.122 23.236 317.629 24.224C318.136 25.212 318.845 26.01 319.757 26.618C320.669 27.226 321.72 27.53 322.911 27.53C324.203 27.53 325.318 27.2007 326.255 26.542C327.192 25.8833 327.889 24.9967 328.345 23.882H331.575C331.043 25.706 330.042 27.226 328.573 28.442C327.129 29.658 325.254 30.266 322.949 30.266ZM328.611 18.486C328.51 16.206 327.952 14.5593 326.939 13.546C325.926 12.5327 324.596 12.026 322.949 12.026C321.15 12.026 319.719 12.6213 318.655 13.812C317.591 15.0027 317.021 16.5607 316.945 18.486H328.611ZM341.797 30.152C340.303 30.152 339.188 29.9113 338.453 29.43C337.719 28.9487 337.25 28.328 337.047 27.568C336.87 26.7827 336.781 25.7693 336.781 24.528L336.819 1.5H340.087V24.034C340.087 24.9967 340.125 25.7187 340.201 26.2C340.303 26.656 340.543 27.0233 340.923 27.302C341.329 27.5807 341.962 27.72 342.823 27.72C343.355 27.72 343.824 27.682 344.229 27.606V29.962C343.545 30.0887 342.735 30.152 341.797 30.152ZM357.053 30.266C355.001 30.266 353.265 29.772 351.847 28.784C350.453 27.796 349.415 26.504 348.731 24.908C348.047 23.312 347.705 21.6273 347.705 19.854C347.705 18.0553 348.047 16.3707 348.731 14.8C349.415 13.204 350.466 11.912 351.885 10.924C353.303 9.936 355.039 9.442 357.091 9.442C359.776 9.442 361.917 10.3413 363.513 12.14C365.134 13.9387 365.945 16.5227 365.945 19.892V20.804H350.973V21.07C350.973 22.1847 351.226 23.236 351.733 24.224C352.239 25.212 352.949 26.01 353.861 26.618C354.773 27.226 355.824 27.53 357.015 27.53C358.307 27.53 359.421 27.2007 360.359 26.542C361.296 25.8833 361.993 24.9967 362.449 23.882H365.679C365.147 25.706 364.146 27.226 362.677 28.442C361.233 29.658 359.358 30.266 357.053 30.266ZM362.715 18.486C362.613 16.206 362.056 14.5593 361.043 13.546C360.029 12.5327 358.699 12.026 357.053 12.026C355.254 12.026 353.823 12.6213 352.759 13.812C351.695 15.0027 351.125 16.5607 351.049 18.486H362.715ZM379.321 30.266C377.244 30.266 375.483 29.772 374.039 28.784C372.62 27.796 371.569 26.5167 370.885 24.946C370.201 23.35 369.859 21.6527 369.859 19.854C369.859 18.0553 370.201 16.3707 370.885 14.8C371.569 13.204 372.62 11.912 374.039 10.924C375.483 9.936 377.244 9.442 379.321 9.442C381.905 9.442 383.932 10.1893 385.401 11.684C386.896 13.1787 387.795 15.0153 388.099 17.194H384.907C384.679 15.7247 384.096 14.534 383.159 13.622C382.222 12.6847 380.955 12.216 379.359 12.216C377.332 12.216 375.787 12.9507 374.723 14.42C373.684 15.864 373.165 17.6753 373.165 19.854C373.165 22.0327 373.684 23.8567 374.723 25.326C375.787 26.77 377.332 27.492 379.359 27.492C380.955 27.492 382.222 27.036 383.159 26.124C384.096 25.212 384.679 24.0087 384.907 22.514H388.099C387.795 24.6927 386.896 26.5293 385.401 28.024C383.932 29.5187 381.905 30.266 379.321 30.266ZM398.023 12.596V24.224C398.023 25.1613 398.061 25.858 398.137 26.314C398.239 26.7447 398.479 27.0867 398.859 27.34C399.265 27.5933 399.911 27.72 400.797 27.72C401.405 27.72 402.064 27.6313 402.773 27.454V29.81C402.596 29.886 402.203 29.962 401.595 30.038C401.013 30.114 400.405 30.152 399.771 30.152C398.302 30.152 397.2 29.9493 396.465 29.544C395.756 29.1133 395.287 28.5433 395.059 27.834C394.857 27.0993 394.755 26.1367 394.755 24.946V12.596H391.031V9.974H394.755V3.4H398.023V9.974H402.773V12.596H398.023ZM407.431 9.974H410.699V13.166H410.927C411.257 12.2793 411.839 11.532 412.675 10.924C413.537 10.2907 414.613 9.974 415.905 9.974C416.311 9.974 416.627 9.99933 416.855 10.05C417.109 10.0753 417.387 10.1387 417.691 10.24L417.577 13.432C417.172 13.3053 416.817 13.2167 416.513 13.166C416.235 13.1153 415.867 13.09 415.411 13.09C412.27 13.09 410.699 14.952 410.699 18.676V30H407.431V9.974ZM429.194 30.266C427.167 30.266 425.445 29.7847 424.026 28.822C422.633 27.834 421.581 26.5547 420.872 24.984C420.163 23.388 419.808 21.678 419.808 19.854C419.808 18.03 420.163 16.3327 420.872 14.762C421.581 13.166 422.633 11.8867 424.026 10.924C425.445 9.936 427.167 9.442 429.194 9.442C431.221 9.442 432.931 9.936 434.324 10.924C435.743 11.8867 436.794 13.166 437.478 14.762C438.187 16.358 438.542 18.0553 438.542 19.854C438.542 21.6527 438.187 23.35 437.478 24.946C436.769 26.542 435.705 27.834 434.286 28.822C432.893 29.7847 431.195 30.266 429.194 30.266ZM429.194 27.454C430.435 27.454 431.512 27.112 432.424 26.428C433.361 25.744 434.071 24.832 434.552 23.692C435.033 22.5267 435.274 21.2347 435.274 19.816C435.274 17.6373 434.729 15.826 433.64 14.382C432.551 12.938 431.069 12.216 429.194 12.216C427.927 12.216 426.825 12.558 425.888 13.242C424.976 13.926 424.279 14.8507 423.798 16.016C423.317 17.156 423.076 18.4227 423.076 19.816C423.076 21.9947 423.621 23.8187 424.71 25.288C425.799 26.732 427.294 27.454 429.194 27.454ZM427.978 7.276L431.702 0.474H435.198L430.6 7.276H427.978ZM443.32 9.974H446.588V13.584H446.892C447.398 12.4187 448.222 11.4433 449.362 10.658C450.502 9.84733 451.895 9.442 453.542 9.442C455.239 9.442 456.658 9.84733 457.798 10.658C458.938 11.4433 459.774 12.4947 460.306 13.812C460.863 15.104 461.142 16.51 461.142 18.03V30H457.874V18.448C457.874 16.472 457.354 14.9647 456.316 13.926C455.302 12.8873 453.972 12.368 452.326 12.368C450.578 12.368 449.184 12.938 448.146 14.078C447.107 15.1927 446.588 16.6493 446.588 18.448V30H443.32V9.974ZM466.853 9.974H470.121V30H466.853V9.974ZM468.449 6.25C467.841 6.25 467.335 6.04733 466.929 5.642C466.524 5.21133 466.321 4.70466 466.321 4.122C466.321 3.53933 466.524 3.04533 466.929 2.64C467.335 2.20933 467.841 1.994 468.449 1.994C469.057 1.994 469.564 2.20933 469.969 2.64C470.4 3.04533 470.615 3.53933 470.615 4.122C470.615 4.70466 470.4 5.21133 469.969 5.642C469.564 6.04733 469.057 6.25 468.449 6.25ZM484.637 30.266C482.56 30.266 480.799 29.772 479.355 28.784C477.937 27.796 476.885 26.5167 476.201 24.946C475.517 23.35 475.175 21.6527 475.175 19.854C475.175 18.0553 475.517 16.3707 476.201 14.8C476.885 13.204 477.937 11.912 479.355 10.924C480.799 9.936 482.56 9.442 484.637 9.442C487.221 9.442 489.248 10.1893 490.717 11.684C492.212 13.1787 493.111 15.0153 493.415 17.194H490.223C489.995 15.7247 489.413 14.534 488.475 13.622C487.538 12.6847 486.271 12.216 484.675 12.216C482.649 12.216 481.103 12.9507 480.039 14.42C479.001 15.864 478.481 17.6753 478.481 19.854C478.481 22.0327 479.001 23.8567 480.039 25.326C481.103 26.77 482.649 27.492 484.675 27.492C486.271 27.492 487.538 27.036 488.475 26.124C489.413 25.212 489.995 24.0087 490.223 22.514H493.415C493.111 24.6927 492.212 26.5293 490.717 28.024C489.248 29.5187 487.221 30.266 484.637 30.266ZM506.456 30.266C504.429 30.266 502.707 29.7847 501.288 28.822C499.895 27.834 498.843 26.5547 498.134 24.984C497.425 23.388 497.07 21.678 497.07 19.854C497.07 18.03 497.425 16.3327 498.134 14.762C498.843 13.166 499.895 11.8867 501.288 10.924C502.707 9.936 504.429 9.442 506.456 9.442C508.483 9.442 510.193 9.936 511.586 10.924C513.005 11.8867 514.056 13.166 514.74 14.762C515.449 16.358 515.804 18.0553 515.804 19.854C515.804 21.6527 515.449 23.35 514.74 24.946C514.031 26.542 512.967 27.834 511.548 28.822C510.155 29.7847 508.457 30.266 506.456 30.266ZM506.456 27.454C507.697 27.454 508.774 27.112 509.686 26.428C510.623 25.744 511.333 24.832 511.814 23.692C512.295 22.5267 512.536 21.2347 512.536 19.816C512.536 17.6373 511.991 15.826 510.902 14.382C509.813 12.938 508.331 12.216 506.456 12.216C505.189 12.216 504.087 12.558 503.15 13.242C502.238 13.926 501.541 14.8507 501.06 16.016C500.579 17.156 500.338 18.4227 500.338 19.816C500.338 21.9947 500.883 23.8187 501.972 25.288C503.061 26.732 504.556 27.454 506.456 27.454ZM539.751 30.266C538.003 30.266 536.572 29.8353 535.457 28.974C534.343 28.1127 533.481 27.0867 532.873 25.896H532.607V37.714H529.301V9.974H532.607V13.698H532.873C533.431 12.5327 534.254 11.532 535.343 10.696C536.433 9.86 537.864 9.442 539.637 9.442C541.436 9.442 542.969 9.898 544.235 10.81C545.527 11.6967 546.503 12.938 547.161 14.534C547.82 16.1047 548.149 17.878 548.149 19.854C548.149 21.83 547.82 23.6033 547.161 25.174C546.503 26.7447 545.54 27.986 544.273 28.898C543.007 29.81 541.499 30.266 539.751 30.266ZM538.725 27.454C540.701 27.454 542.196 26.732 543.209 25.288C544.248 23.844 544.767 22.0327 544.767 19.854C544.767 17.7007 544.261 15.902 543.247 14.458C542.234 13.014 540.727 12.292 538.725 12.292C536.749 12.292 535.242 13.014 534.203 14.458C533.19 15.902 532.683 17.7007 532.683 19.854C532.683 22.0073 533.203 23.8187 534.241 25.288C535.28 26.732 536.775 27.454 538.725 27.454ZM560.312 30.266C558.539 30.266 557.019 29.81 555.752 28.898C554.511 27.986 553.561 26.7447 552.902 25.174C552.243 23.6033 551.914 21.83 551.914 19.854C551.914 17.878 552.243 16.1047 552.902 14.534C553.586 12.938 554.561 11.6967 555.828 10.81C557.12 9.898 558.653 9.442 560.426 9.442C562.199 9.442 563.631 9.86 564.72 10.696C565.809 11.532 566.633 12.5327 567.19 13.698H567.456V9.974H570.762V30H567.456V25.896H567.19C566.582 27.0867 565.721 28.1127 564.606 28.974C563.491 29.8353 562.06 30.266 560.312 30.266ZM561.338 27.454C563.289 27.454 564.783 26.732 565.822 25.288C566.861 23.8187 567.38 22.0073 567.38 19.854C567.38 17.7007 566.861 15.902 565.822 14.458C564.783 12.9887 563.289 12.254 561.338 12.254C559.337 12.254 557.817 12.976 556.778 14.42C555.765 15.864 555.258 17.6627 555.258 19.816C555.258 21.9947 555.765 23.8187 556.778 25.288C557.817 26.732 559.337 27.454 561.338 27.454ZM576.39 9.974H579.658V13.166H579.886C580.216 12.2793 580.798 11.532 581.634 10.924C582.496 10.2907 583.572 9.974 584.864 9.974C585.27 9.974 585.586 9.99933 585.814 10.05C586.068 10.0753 586.346 10.1387 586.65 10.24L586.536 13.432C586.131 13.3053 585.776 13.2167 585.472 13.166C585.194 13.1153 584.826 13.09 584.37 13.09C581.229 13.09 579.658 14.952 579.658 18.676V30H576.39V9.974ZM597.013 30.266C595.24 30.266 593.72 29.81 592.453 28.898C591.212 27.986 590.262 26.7447 589.603 25.174C588.944 23.6033 588.615 21.83 588.615 19.854C588.615 17.878 588.944 16.1047 589.603 14.534C590.287 12.938 591.262 11.6967 592.529 10.81C593.821 9.898 595.354 9.442 597.127 9.442C598.9 9.442 600.332 9.86 601.421 10.696C602.51 11.532 603.334 12.5327 603.891 13.698H604.157V9.974H607.463V30H604.157V25.896H603.891C603.283 27.0867 602.422 28.1127 601.307 28.974C600.192 29.8353 598.761 30.266 597.013 30.266ZM598.039 27.454C599.99 27.454 601.484 26.732 602.523 25.288C603.562 23.8187 604.081 22.0073 604.081 19.854C604.081 17.7007 603.562 15.902 602.523 14.458C601.484 12.9887 599.99 12.254 598.039 12.254C596.038 12.254 594.518 12.976 593.479 14.42C592.466 15.864 591.959 17.6627 591.959 19.816C591.959 21.9947 592.466 23.8187 593.479 25.288C594.518 26.732 596.038 27.454 598.039 27.454ZM126.161 85.266C124.083 85.266 122.323 84.772 120.879 83.784C119.46 82.796 118.409 81.5167 117.725 79.946C117.041 78.35 116.699 76.6527 116.699 74.854C116.699 73.0553 117.041 71.3707 117.725 69.8C118.409 68.204 119.46 66.912 120.879 65.924C122.323 64.936 124.083 64.442 126.161 64.442C128.745 64.442 130.771 65.1893 132.241 66.684C133.735 68.1787 134.635 70.0153 134.939 72.194H131.747C131.519 70.7247 130.936 69.534 129.999 68.622C129.061 67.6847 127.795 67.216 126.199 67.216C124.172 67.216 122.627 67.9507 121.563 69.42C120.524 70.864 120.005 72.6753 120.005 74.854C120.005 77.0327 120.524 78.8567 121.563 80.326C122.627 81.77 124.172 82.492 126.199 82.492C127.795 82.492 129.061 82.036 129.999 81.124C130.936 80.212 131.519 79.0087 131.747 77.514H134.939C134.635 79.6927 133.735 81.5293 132.241 83.024C130.771 84.5187 128.745 85.266 126.161 85.266ZM147.979 85.266C145.953 85.266 144.23 84.7847 142.811 83.822C141.418 82.834 140.367 81.5547 139.657 79.984C138.948 78.388 138.593 76.678 138.593 74.854C138.593 73.03 138.948 71.3327 139.657 69.762C140.367 68.166 141.418 66.8867 142.811 65.924C144.23 64.936 145.953 64.442 147.979 64.442C150.006 64.442 151.716 64.936 153.109 65.924C154.528 66.8867 155.579 68.166 156.263 69.762C156.973 71.358 157.327 73.0553 157.327 74.854C157.327 76.6527 156.973 78.35 156.263 79.946C155.554 81.542 154.49 82.834 153.071 83.822C151.678 84.7847 149.981 85.266 147.979 85.266ZM147.979 82.454C149.221 82.454 150.297 82.112 151.209 81.428C152.147 80.744 152.856 79.832 153.337 78.692C153.819 77.5267 154.059 76.2347 154.059 74.816C154.059 72.6373 153.515 70.826 152.425 69.382C151.336 67.938 149.854 67.216 147.979 67.216C146.713 67.216 145.611 67.558 144.673 68.242C143.761 68.926 143.065 69.8507 142.583 71.016C142.102 72.156 141.861 73.4227 141.861 74.816C141.861 76.9947 142.406 78.8187 143.495 80.288C144.585 81.732 146.079 82.454 147.979 82.454ZM162.105 64.974H165.373V68.584H165.677C166.184 67.4187 167.007 66.4433 168.147 65.658C169.287 64.8473 170.68 64.442 172.327 64.442C174.024 64.442 175.443 64.8473 176.583 65.658C177.723 66.4433 178.559 67.4947 179.091 68.812C179.648 70.104 179.927 71.51 179.927 73.03V85H176.659V73.448C176.659 71.472 176.14 69.9647 175.101 68.926C174.088 67.8873 172.758 67.368 171.111 67.368C169.363 67.368 167.97 67.938 166.931 69.078C165.892 70.1927 165.373 71.6493 165.373 73.448V85H162.105V64.974ZM192.212 85.266C190.591 85.266 189.185 84.9493 187.994 84.316C186.804 83.6573 185.892 82.8213 185.258 81.808C184.65 80.7947 184.346 79.7307 184.346 78.616V78.426H187.614V78.578C187.614 79.2113 187.792 79.8447 188.146 80.478C188.501 81.086 189.033 81.5927 189.742 81.998C190.452 82.378 191.313 82.568 192.326 82.568C193.542 82.568 194.543 82.2767 195.328 81.694C196.139 81.086 196.544 80.2627 196.544 79.224C196.544 78.3627 196.228 77.6787 195.594 77.172C194.986 76.6653 194.214 76.336 193.276 76.184L190.654 75.804C189.008 75.5507 187.627 74.9933 186.512 74.132C185.398 73.2453 184.84 71.966 184.84 70.294C184.84 68.4447 185.499 67.0133 186.816 66C188.159 64.9613 189.869 64.442 191.946 64.442C193.492 64.442 194.809 64.7333 195.898 65.316C197.013 65.8733 197.862 66.6207 198.444 67.558C199.027 68.47 199.318 69.4707 199.318 70.56V70.712H196.05V70.636C196.05 70.1293 195.911 69.5973 195.632 69.04C195.379 68.4827 194.936 68.0013 194.302 67.596C193.669 67.1907 192.858 66.988 191.87 66.988C190.654 66.988 189.679 67.292 188.944 67.9C188.21 68.4827 187.842 69.2553 187.842 70.218C187.842 71.0033 188.134 71.6493 188.716 72.156C189.299 72.6627 190.034 72.992 190.92 73.144L193.77 73.6C195.442 73.8787 196.848 74.4613 197.988 75.348C199.128 76.2093 199.698 77.4887 199.698 79.186C199.698 80.402 199.369 81.466 198.71 82.378C198.077 83.29 197.19 83.9993 196.05 84.506C194.91 85.0127 193.631 85.266 192.212 85.266ZM221.666 85H218.36V81.2H218.132C217.6 82.3653 216.777 83.3533 215.662 84.164C214.573 84.9493 213.23 85.342 211.634 85.342C209.962 85.342 208.569 84.9367 207.454 84.126C206.339 83.3153 205.516 82.264 204.984 80.972C204.477 79.68 204.224 78.274 204.224 76.754V64.974H207.492V76.336C207.492 78.2867 207.986 79.794 208.974 80.858C209.962 81.8967 211.254 82.416 212.85 82.416C214.522 82.416 215.852 81.8587 216.84 80.744C217.853 79.604 218.36 78.1347 218.36 76.336V64.974H221.666V85ZM232.325 85.152C230.83 85.152 229.715 84.9113 228.981 84.43C228.246 83.9487 227.777 83.328 227.575 82.568C227.397 81.7827 227.309 80.7693 227.309 79.528L227.347 56.5H230.615V79.034C230.615 79.9967 230.653 80.7187 230.729 81.2C230.83 81.656 231.071 82.0233 231.451 82.302C231.856 82.5807 232.489 82.72 233.351 82.72C233.883 82.72 234.351 82.682 234.757 82.606V84.962C234.073 85.0887 233.262 85.152 232.325 85.152ZM244.502 67.596V79.224C244.502 80.1613 244.54 80.858 244.616 81.314C244.717 81.7447 244.958 82.0867 245.338 82.34C245.743 82.5933 246.389 82.72 247.276 82.72C247.884 82.72 248.543 82.6313 249.252 82.454V84.81C249.075 84.886 248.682 84.962 248.074 85.038C247.491 85.114 246.883 85.152 246.25 85.152C244.781 85.152 243.679 84.9493 242.944 84.544C242.235 84.1133 241.766 83.5433 241.538 82.834C241.335 82.0993 241.234 81.1367 241.234 79.946V67.596H237.51V64.974H241.234V58.4H244.502V64.974H249.252V67.596H244.502ZM261.396 85.266C259.623 85.266 258.103 84.81 256.836 83.898C255.595 82.986 254.645 81.7447 253.986 80.174C253.327 78.6033 252.998 76.83 252.998 74.854C252.998 72.878 253.327 71.1047 253.986 69.534C254.67 67.938 255.645 66.6967 256.912 65.81C258.204 64.898 259.737 64.442 261.51 64.442C263.283 64.442 264.715 64.86 265.804 65.696C266.893 66.532 267.717 67.5327 268.274 68.698H268.54V64.974H271.846V85H268.54V80.896H268.274C267.666 82.0867 266.805 83.1127 265.69 83.974C264.575 84.8353 263.144 85.266 261.396 85.266ZM262.422 82.454C264.373 82.454 265.867 81.732 266.906 80.288C267.945 78.8187 268.464 77.0073 268.464 74.854C268.464 72.7007 267.945 70.902 266.906 69.458C265.867 67.9887 264.373 67.254 262.422 67.254C260.421 67.254 258.901 67.976 257.862 69.42C256.849 70.864 256.342 72.6627 256.342 74.816C256.342 76.9947 256.849 78.8187 257.862 80.288C258.901 81.732 260.421 82.454 262.422 82.454ZM277.474 64.974H280.742V68.166H280.97C281.3 67.2793 281.882 66.532 282.718 65.924C283.58 65.2907 284.656 64.974 285.948 64.974C286.354 64.974 286.67 64.9993 286.898 65.05C287.152 65.0753 287.43 65.1387 287.734 65.24L287.62 68.432C287.215 68.3053 286.86 68.2167 286.556 68.166C286.278 68.1153 285.91 68.09 285.454 68.09C282.313 68.09 280.742 69.952 280.742 73.676V85H277.474V64.974ZM305.139 67.596V79.224C305.139 80.1613 305.177 80.858 305.253 81.314C305.354 81.7447 305.595 82.0867 305.975 82.34C306.38 82.5933 307.026 82.72 307.913 82.72C308.521 82.72 309.179 82.6313 309.889 82.454V84.81C309.711 84.886 309.319 84.962 308.711 85.038C308.128 85.114 307.52 85.152 306.887 85.152C305.417 85.152 304.315 84.9493 303.581 84.544C302.871 84.1133 302.403 83.5433 302.175 82.834C301.972 82.0993 301.871 81.1367 301.871 79.946V67.596H298.147V64.974H301.871V58.4H305.139V64.974H309.889V67.596H305.139ZM332.141 85H328.835V81.2H328.607C328.075 82.3653 327.251 83.3533 326.137 84.164C325.047 84.9493 323.705 85.342 322.109 85.342C320.437 85.342 319.043 84.9367 317.929 84.126C316.814 83.3153 315.991 82.264 315.459 80.972C314.952 79.68 314.699 78.274 314.699 76.754V64.974H317.967V76.336C317.967 78.2867 318.461 79.794 319.449 80.858C320.437 81.8967 321.729 82.416 323.325 82.416C324.997 82.416 326.327 81.8587 327.315 80.744C328.328 79.604 328.835 78.1347 328.835 76.336V64.974H332.141V85ZM356.728 85.266C354.98 85.266 353.548 84.8353 352.434 83.974C351.319 83.1127 350.458 82.0867 349.85 80.896H349.584V92.714H346.278V64.974H349.584V68.698H349.85C350.407 67.5327 351.23 66.532 352.32 65.696C353.409 64.86 354.84 64.442 356.614 64.442C358.412 64.442 359.945 64.898 361.212 65.81C362.504 66.6967 363.479 67.938 364.138 69.534C364.796 71.1047 365.126 72.878 365.126 74.854C365.126 76.83 364.796 78.6033 364.138 80.174C363.479 81.7447 362.516 82.986 361.25 83.898C359.983 84.81 358.476 85.266 356.728 85.266ZM355.702 82.454C357.678 82.454 359.172 81.732 360.186 80.288C361.224 78.844 361.744 77.0327 361.744 74.854C361.744 72.7007 361.237 70.902 360.224 69.458C359.21 68.014 357.703 67.292 355.702 67.292C353.726 67.292 352.218 68.014 351.18 69.458C350.166 70.902 349.66 72.7007 349.66 74.854C349.66 77.0073 350.179 78.8187 351.218 80.288C352.256 81.732 353.751 82.454 355.702 82.454ZM387.396 85H384.09V81.2H383.862C383.33 82.3653 382.507 83.3533 381.392 84.164C380.303 84.9493 378.96 85.342 377.364 85.342C375.692 85.342 374.299 84.9367 373.184 84.126C372.07 83.3153 371.246 82.264 370.714 80.972C370.208 79.68 369.954 78.274 369.954 76.754V64.974H373.222V76.336C373.222 78.2867 373.716 79.794 374.704 80.858C375.692 81.8967 376.984 82.416 378.58 82.416C380.252 82.416 381.582 81.8587 382.57 80.744C383.584 79.604 384.09 78.1347 384.09 76.336V64.974H387.396V85ZM392.925 64.974H396.193V68.584H396.497C397.004 67.4187 397.827 66.4433 398.967 65.658C400.107 64.8473 401.501 64.442 403.147 64.442C404.845 64.442 406.263 64.8473 407.403 65.658C408.543 66.4433 409.379 67.4947 409.911 68.812C410.469 70.104 410.747 71.51 410.747 73.03V85H407.479V73.448C407.479 71.472 406.96 69.9647 405.921 68.926C404.908 67.8873 403.578 67.368 401.931 67.368C400.183 67.368 398.79 67.938 397.751 69.078C396.713 70.1927 396.193 71.6493 396.193 73.448V85H392.925V64.974ZM420.809 67.596V79.224C420.809 80.1613 420.847 80.858 420.923 81.314C421.024 81.7447 421.265 82.0867 421.645 82.34C422.05 82.5933 422.696 82.72 423.583 82.72C424.191 82.72 424.849 82.6313 425.559 82.454V84.81C425.381 84.886 424.989 84.962 424.381 85.038C423.798 85.114 423.19 85.152 422.557 85.152C421.087 85.152 419.985 84.9493 419.251 84.544C418.541 84.1133 418.073 83.5433 417.845 82.834C417.642 82.0993 417.541 81.1367 417.541 79.946V67.596H413.817V64.974H417.541V58.4H420.809V64.974H425.559V67.596H420.809ZM437.703 85.266C435.929 85.266 434.409 84.81 433.143 83.898C431.901 82.986 430.951 81.7447 430.293 80.174C429.634 78.6033 429.305 76.83 429.305 74.854C429.305 72.878 429.634 71.1047 430.293 69.534C430.977 67.938 431.952 66.6967 433.219 65.81C434.511 64.898 436.043 64.442 437.817 64.442C439.59 64.442 441.021 64.86 442.111 65.696C443.2 66.532 444.023 67.5327 444.581 68.698H444.847V64.974H448.153V85H444.847V80.896H444.581C443.973 82.0867 443.111 83.1127 441.997 83.974C440.882 84.8353 439.451 85.266 437.703 85.266ZM438.729 82.454C440.679 82.454 442.174 81.732 443.213 80.288C444.251 78.8187 444.771 77.0073 444.771 74.854C444.771 72.7007 444.251 70.902 443.213 69.458C442.174 67.9887 440.679 67.254 438.729 67.254C436.727 67.254 435.207 67.976 434.169 69.42C433.155 70.864 432.649 72.6627 432.649 74.816C432.649 76.9947 433.155 78.8187 434.169 80.288C435.207 81.732 436.727 82.454 438.729 82.454ZM456.061 61.25C455.453 61.25 454.946 61.0473 454.541 60.642C454.161 60.2367 453.971 59.73 453.971 59.122C453.971 58.514 454.161 58.0073 454.541 57.602C454.946 57.1967 455.453 56.994 456.061 56.994C456.669 56.994 457.176 57.2093 457.581 57.64C458.012 58.0453 458.227 58.5393 458.227 59.122C458.227 59.7047 458.012 60.2113 457.581 60.642C457.176 61.0473 456.669 61.25 456.061 61.25ZM452.261 93.322C451.248 93.322 450.361 93.2207 449.601 93.018V90.662C450.032 90.7633 450.627 90.814 451.387 90.814C452.299 90.814 452.97 90.6367 453.401 90.282C453.832 89.9527 454.098 89.5473 454.199 89.066C454.3 88.61 454.351 88.0147 454.351 87.28V64.708H457.619L457.657 88.04C457.657 89.4587 457.302 90.6873 456.593 91.726C455.884 92.79 454.44 93.322 452.261 93.322ZM471.98 85.266C469.928 85.266 468.193 84.772 466.774 83.784C465.381 82.796 464.342 81.504 463.658 79.908C462.974 78.312 462.632 76.6273 462.632 74.854C462.632 73.0553 462.974 71.3707 463.658 69.8C464.342 68.204 465.394 66.912 466.812 65.924C468.231 64.936 469.966 64.442 472.018 64.442C474.704 64.442 476.844 65.3413 478.44 67.14C480.062 68.9387 480.872 71.5227 480.872 74.892V75.804H465.9V76.07C465.9 77.1847 466.154 78.236 466.66 79.224C467.167 80.212 467.876 81.01 468.788 81.618C469.7 82.226 470.752 82.53 471.942 82.53C473.234 82.53 474.349 82.2007 475.286 81.542C476.224 80.8833 476.92 79.9967 477.376 78.882H480.606C480.074 80.706 479.074 82.226 477.604 83.442C476.16 84.658 474.286 85.266 471.98 85.266ZM477.642 73.486C477.541 71.206 476.984 69.5593 475.97 68.546C474.957 67.5327 473.627 67.026 471.98 67.026C470.182 67.026 468.75 67.6213 467.686 68.812C466.622 70.0027 466.052 71.5607 465.976 73.486H477.642ZM488.055 85.266C487.421 85.266 486.889 85.0507 486.459 84.62C486.053 84.164 485.851 83.632 485.851 83.024C485.851 82.416 486.053 81.9093 486.459 81.504C486.889 81.0733 487.421 80.858 488.055 80.858C488.688 80.858 489.207 81.0733 489.613 81.504C490.043 81.9093 490.259 82.416 490.259 83.024C490.259 83.632 490.043 84.164 489.613 84.62C489.182 85.0507 488.663 85.266 488.055 85.266Z" fill="white"/>
</svg>
