<svg width="534" height="175" viewBox="0 0 534 175" fill="none" xmlns="http://www.w3.org/2000/svg">
<path d="M55.5235 44.605L58.7535 82.09H39.5435L42.6885 44.605H55.5235ZM49.1485 22.165C51.9818 22.165 54.2768 23.0433 56.0335 24.8C57.8468 26.5 58.7535 28.5967 58.7535 31.09C58.7535 33.5267 57.8468 35.595 56.0335 37.295C54.2768 38.995 51.9818 39.845 49.1485 39.845C46.3151 39.845 43.9918 38.995 42.1785 37.295C40.3651 35.595 39.4585 33.5267 39.4585 31.09C39.4585 28.5967 40.3651 26.5 42.1785 24.8C43.9918 23.0433 46.3151 22.165 49.1485 22.165ZM88.7399 70.19C83.8666 70.19 79.1632 69.595 74.6299 68.405C70.1532 67.1583 66.4982 65.5717 63.6649 63.645L69.1899 51.235C71.8532 52.935 74.9132 54.3517 78.3699 55.485C81.8832 56.5617 85.3682 57.1 88.8249 57.1C91.1482 57.1 93.0182 56.9017 94.4349 56.505C95.8516 56.0517 96.8716 55.485 97.4949 54.805C98.1749 54.0683 98.5149 53.2183 98.5149 52.255C98.5149 50.895 97.8916 49.8183 96.6449 49.025C95.3982 48.2317 93.7832 47.58 91.7999 47.07C89.8166 46.56 87.6066 46.05 85.1699 45.54C82.7899 45.03 80.3816 44.3783 77.9449 43.585C75.5649 42.7917 73.3832 41.7717 71.3999 40.525C69.4165 39.2217 67.8015 37.55 66.5549 35.51C65.3082 33.4133 64.6849 30.7783 64.6849 27.605C64.6849 24.035 65.6482 20.805 67.5749 17.915C69.5582 15.025 72.5049 12.7017 76.4149 10.945C80.3249 9.18833 85.1982 8.31 91.0349 8.31C94.9449 8.31 98.7699 8.76333 102.51 9.67C106.307 10.52 109.678 11.795 112.625 13.495L107.44 25.99C104.607 24.46 101.802 23.3267 99.0249 22.59C96.2482 21.7967 93.5566 21.4 90.9499 21.4C88.6266 21.4 86.7566 21.655 85.3399 22.165C83.9232 22.6183 82.9032 23.2417 82.2799 24.035C81.6566 24.8283 81.3449 25.735 81.3449 26.755C81.3449 28.0583 81.9399 29.1067 83.1299 29.9C84.3766 30.6367 85.9916 31.26 87.9749 31.77C90.0149 32.2233 92.2249 32.705 94.6049 33.215C97.0416 33.725 99.4499 34.3767 101.83 35.17C104.267 35.9067 106.477 36.9267 108.46 38.23C110.443 39.4767 112.03 41.1483 113.22 43.245C114.467 45.285 115.09 47.8633 115.09 50.98C115.09 54.4367 114.098 57.6383 112.115 60.585C110.188 63.475 107.27 65.7983 103.36 67.555C99.5066 69.3117 94.6332 70.19 88.7399 70.19ZM122.099 69V22.93H138.249V69H122.099ZM130.174 17.83C127.227 17.83 124.847 17.0083 123.034 15.365C121.221 13.7217 120.314 11.6817 120.314 9.245C120.314 6.80833 121.221 4.76833 123.034 3.125C124.847 1.48166 127.227 0.659998 130.174 0.659998C133.121 0.659998 135.501 1.45333 137.314 3.04C139.127 4.57 140.034 6.55333 140.034 8.99C140.034 11.54 139.127 13.665 137.314 15.365C135.557 17.0083 133.177 17.83 130.174 17.83ZM171.27 86.255C166.85 86.255 162.628 85.745 158.605 84.725C154.638 83.705 151.238 82.2033 148.405 80.22L154.27 68.915C156.196 70.445 158.576 71.635 161.41 72.485C164.3 73.3917 167.105 73.845 169.825 73.845C174.188 73.845 177.333 72.8817 179.26 70.955C181.186 69.085 182.15 66.3367 182.15 62.71V57.27L183 44.35L182.915 31.345V22.93H198.3V60.585C198.3 69.3117 195.948 75.7717 191.245 79.965C186.541 84.1583 179.883 86.255 171.27 86.255ZM168.465 66.62C164.385 66.62 160.616 65.7133 157.16 63.9C153.76 62.03 151.011 59.4517 148.915 56.165C146.875 52.8217 145.855 48.8833 145.855 44.35C145.855 39.8167 146.875 35.9067 148.915 32.62C151.011 29.2767 153.76 26.6983 157.16 24.885C160.616 23.0717 164.385 22.165 168.465 22.165C172.375 22.165 175.718 22.9583 178.495 24.545C181.271 26.075 183.368 28.4833 184.785 31.77C186.258 35.0567 186.995 39.25 186.995 44.35C186.995 49.45 186.258 53.6433 184.785 56.93C183.368 60.2167 181.271 62.6533 178.495 64.24C175.718 65.8267 172.375 66.62 168.465 66.62ZM172.29 53.785C174.216 53.785 175.916 53.3883 177.39 52.595C178.92 51.8017 180.11 50.6967 180.96 49.28C181.866 47.8633 182.32 46.22 182.32 44.35C182.32 42.48 181.866 40.8367 180.96 39.42C180.11 38.0033 178.92 36.9267 177.39 36.19C175.916 35.3967 174.216 35 172.29 35C170.363 35 168.635 35.3967 167.105 36.19C165.575 36.9267 164.356 38.0033 163.45 39.42C162.6 40.8367 162.175 42.48 162.175 44.35C162.175 46.22 162.6 47.8633 163.45 49.28C164.356 50.6967 165.575 51.8017 167.105 52.595C168.635 53.3883 170.363 53.785 172.29 53.785ZM228.056 69.765C224.316 69.765 220.945 69.0283 217.941 67.555C214.995 66.0817 212.671 63.7867 210.971 60.67C209.328 57.4967 208.506 53.5017 208.506 48.685V22.93H224.656V46.05C224.656 49.62 225.308 52.17 226.611 53.7C227.971 55.23 229.87 55.995 232.306 55.995C233.893 55.995 235.338 55.6267 236.641 54.89C237.945 54.1533 238.993 52.9917 239.786 51.405C240.58 49.7617 240.976 47.665 240.976 45.115V22.93H257.126V69H241.741V55.995L244.716 59.65C243.13 63.05 240.835 65.6 237.831 67.3C234.828 68.9433 231.57 69.765 228.056 69.765ZM291.669 69.765C286.229 69.765 281.469 68.745 277.389 66.705C273.365 64.6083 270.22 61.775 267.954 58.205C265.744 54.5783 264.639 50.47 264.639 45.88C264.639 41.29 265.715 37.21 267.869 33.64C270.079 30.0133 273.11 27.2083 276.964 25.225C280.817 23.185 285.152 22.165 289.969 22.165C294.502 22.165 298.639 23.1 302.379 24.97C306.119 26.7833 309.094 29.475 311.304 33.045C313.514 36.615 314.619 40.95 314.619 46.05C314.619 46.6167 314.59 47.2683 314.534 48.005C314.477 48.7417 314.42 49.4217 314.364 50.045H277.899V41.545H305.779L299.659 43.925C299.715 41.8283 299.319 40.015 298.469 38.485C297.675 36.955 296.542 35.765 295.069 34.915C293.652 34.065 291.98 33.64 290.054 33.64C288.127 33.64 286.427 34.065 284.954 34.915C283.537 35.765 282.432 36.9833 281.639 38.57C280.845 40.1 280.449 41.9133 280.449 44.01V46.475C280.449 48.7417 280.902 50.6967 281.809 52.34C282.772 53.9833 284.132 55.2583 285.889 56.165C287.645 57.015 289.742 57.44 292.179 57.44C294.445 57.44 296.372 57.1283 297.959 56.505C299.602 55.825 301.217 54.805 302.804 53.445L311.304 62.285C309.094 64.7217 306.374 66.5917 303.144 67.895C299.914 69.1417 296.089 69.765 291.669 69.765ZM374.936 69V60.415L373.831 58.29V42.48C373.831 39.93 373.038 37.975 371.451 36.615C369.921 35.1983 367.456 34.49 364.056 34.49C361.846 34.49 359.608 34.8583 357.341 35.595C355.075 36.275 353.148 37.2383 351.561 38.485L346.121 27.52C348.728 25.82 351.845 24.5167 355.471 23.61C359.155 22.6467 362.81 22.165 366.436 22.165C373.916 22.165 379.696 23.8933 383.776 27.35C387.913 30.75 389.981 36.105 389.981 43.415V69H374.936ZM361.336 69.765C357.653 69.765 354.536 69.1417 351.986 67.895C349.436 66.6483 347.481 64.9483 346.121 62.795C344.818 60.6417 344.166 58.2333 344.166 55.57C344.166 52.7367 344.875 50.3 346.291 48.26C347.765 46.1633 350.003 44.5767 353.006 43.5C356.01 42.3667 359.891 41.8 364.651 41.8H375.531V50.215H366.861C364.255 50.215 362.413 50.64 361.336 51.49C360.316 52.34 359.806 53.4733 359.806 54.89C359.806 56.3067 360.345 57.44 361.421 58.29C362.498 59.14 363.971 59.565 365.841 59.565C367.598 59.565 369.185 59.14 370.601 58.29C372.075 57.3833 373.151 56.0233 373.831 54.21L376.041 60.16C375.191 63.3333 373.52 65.7417 371.026 67.385C368.59 68.9717 365.36 69.765 361.336 69.765ZM416.92 69.765C413.01 69.765 409.185 69.3117 405.445 68.405C401.762 67.4983 398.787 66.365 396.52 65.005L401.365 53.955C403.519 55.2583 406.04 56.3067 408.93 57.1C411.82 57.8367 414.654 58.205 417.43 58.205C420.15 58.205 422.02 57.9217 423.04 57.355C424.117 56.7883 424.655 56.0233 424.655 55.06C424.655 54.1533 424.145 53.5017 423.125 53.105C422.162 52.6517 420.859 52.3117 419.215 52.085C417.629 51.8583 415.872 51.6033 413.945 51.32C412.019 51.0367 410.064 50.6683 408.08 50.215C406.154 49.705 404.369 48.9683 402.725 48.005C401.139 46.985 399.864 45.625 398.9 43.925C397.937 42.225 397.455 40.0717 397.455 37.465C397.455 34.5183 398.305 31.9117 400.005 29.645C401.762 27.3217 404.312 25.5083 407.655 24.205C410.999 22.845 415.079 22.165 419.895 22.165C423.125 22.165 426.384 22.505 429.67 23.185C433.014 23.8083 435.819 24.7717 438.085 26.075L433.24 37.04C430.974 35.7367 428.707 34.8583 426.44 34.405C424.174 33.895 422.02 33.64 419.98 33.64C417.26 33.64 415.334 33.9517 414.2 34.575C413.124 35.1983 412.585 35.9633 412.585 36.87C412.585 37.7767 413.067 38.485 414.03 38.995C414.994 39.4483 416.269 39.8167 417.855 40.1C419.499 40.3267 421.284 40.5817 423.21 40.865C425.137 41.0917 427.064 41.46 428.99 41.97C430.974 42.48 432.759 43.245 434.345 44.265C435.989 45.2283 437.292 46.56 438.255 48.26C439.219 49.9033 439.7 52.0283 439.7 54.635C439.7 57.4683 438.822 60.0183 437.065 62.285C435.365 64.5517 432.815 66.365 429.415 67.725C426.072 69.085 421.907 69.765 416.92 69.765ZM446.66 69V22.93H462.81V69H446.66ZM446.405 17.405L457.795 4.48499H473.945L457.965 17.405H446.405ZM474.495 47.325L471.35 9.5H490.56L487.33 47.325H474.495ZM480.955 69.765C478.122 69.765 475.798 68.8867 473.985 67.13C472.172 65.3733 471.265 63.2767 471.265 60.84C471.265 58.3467 472.172 56.2783 473.985 54.635C475.798 52.935 478.122 52.085 480.955 52.085C483.788 52.085 486.083 52.935 487.84 54.635C489.653 56.2783 490.56 58.3467 490.56 60.84C490.56 63.2767 489.653 65.3733 487.84 67.13C486.083 68.8867 483.788 69.765 480.955 69.765ZM40.249 97.5H57.079V157H40.249V97.5ZM17.299 157H0.469043V97.5H17.299V157ZM41.439 133.795H16.109V119.855H41.439V133.795ZM96.3205 157V148.415L95.2155 146.29V130.48C95.2155 127.93 94.4222 125.975 92.8355 124.615C91.3055 123.198 88.8405 122.49 85.4405 122.49C83.2305 122.49 80.9922 122.858 78.7255 123.595C76.4588 124.275 74.5322 125.238 72.9455 126.485L67.5055 115.52C70.1122 113.82 73.2288 112.517 76.8555 111.61C80.5388 110.647 84.1938 110.165 87.8205 110.165C95.3005 110.165 101.08 111.893 105.16 115.35C109.297 118.75 111.365 124.105 111.365 131.415V157H96.3205ZM82.7205 157.765C79.0372 157.765 75.9205 157.142 73.3705 155.895C70.8205 154.648 68.8655 152.948 67.5055 150.795C66.2022 148.642 65.5505 146.233 65.5505 143.57C65.5505 140.737 66.2588 138.3 67.6755 136.26C69.1488 134.163 71.3872 132.577 74.3905 131.5C77.3938 130.367 81.2755 129.8 86.0355 129.8H96.9155V138.215H88.2455C85.6388 138.215 83.7972 138.64 82.7205 139.49C81.7005 140.34 81.1905 141.473 81.1905 142.89C81.1905 144.307 81.7288 145.44 82.8055 146.29C83.8822 147.14 85.3555 147.565 87.2255 147.565C88.9822 147.565 90.5688 147.14 91.9855 146.29C93.4588 145.383 94.5355 144.023 95.2155 142.21L97.4255 148.16C96.5755 151.333 94.9038 153.742 92.4105 155.385C89.9738 156.972 86.7438 157.765 82.7205 157.765ZM138.305 157.765C134.395 157.765 130.57 157.312 126.83 156.405C123.146 155.498 120.171 154.365 117.905 153.005L122.75 141.955C124.903 143.258 127.425 144.307 130.315 145.1C133.205 145.837 136.038 146.205 138.815 146.205C141.535 146.205 143.405 145.922 144.425 145.355C145.501 144.788 146.04 144.023 146.04 143.06C146.04 142.153 145.53 141.502 144.51 141.105C143.546 140.652 142.243 140.312 140.6 140.085C139.013 139.858 137.256 139.603 135.33 139.32C133.403 139.037 131.448 138.668 129.465 138.215C127.538 137.705 125.753 136.968 124.11 136.005C122.523 134.985 121.248 133.625 120.285 131.925C119.321 130.225 118.84 128.072 118.84 125.465C118.84 122.518 119.69 119.912 121.39 117.645C123.146 115.322 125.696 113.508 129.04 112.205C132.383 110.845 136.463 110.165 141.28 110.165C144.51 110.165 147.768 110.505 151.055 111.185C154.398 111.808 157.203 112.772 159.47 114.075L154.625 125.04C152.358 123.737 150.091 122.858 147.825 122.405C145.558 121.895 143.405 121.64 141.365 121.64C138.645 121.64 136.718 121.952 135.585 122.575C134.508 123.198 133.97 123.963 133.97 124.87C133.97 125.777 134.451 126.485 135.415 126.995C136.378 127.448 137.653 127.817 139.24 128.1C140.883 128.327 142.668 128.582 144.595 128.865C146.521 129.092 148.448 129.46 150.375 129.97C152.358 130.48 154.143 131.245 155.73 132.265C157.373 133.228 158.676 134.56 159.64 136.26C160.603 137.903 161.085 140.028 161.085 142.635C161.085 145.468 160.206 148.018 158.45 150.285C156.75 152.552 154.2 154.365 150.8 155.725C147.456 157.085 143.291 157.765 138.305 157.765ZM192.78 157V93.93H208.93V157H192.78ZM242.546 157.765C237.502 157.765 233.026 156.745 229.116 154.705C225.206 152.665 222.117 149.86 219.851 146.29C217.641 142.663 216.536 138.527 216.536 133.88C216.536 129.233 217.641 125.125 219.851 121.555C222.117 117.985 225.206 115.208 229.116 113.225C233.026 111.185 237.502 110.165 242.546 110.165C247.589 110.165 252.066 111.185 255.976 113.225C259.942 115.208 263.031 117.985 265.241 121.555C267.451 125.125 268.556 129.233 268.556 133.88C268.556 138.527 267.451 142.663 265.241 146.29C263.031 149.86 259.942 152.665 255.976 154.705C252.066 156.745 247.589 157.765 242.546 157.765ZM242.546 144.93C244.416 144.93 246.059 144.505 247.476 143.655C248.949 142.805 250.111 141.558 250.961 139.915C251.811 138.215 252.236 136.203 252.236 133.88C252.236 131.557 251.811 129.602 250.961 128.015C250.111 126.372 248.949 125.125 247.476 124.275C246.059 123.425 244.416 123 242.546 123C240.732 123 239.089 123.425 237.616 124.275C236.199 125.125 235.037 126.372 234.131 128.015C233.281 129.602 232.856 131.557 232.856 133.88C232.856 136.203 233.281 138.215 234.131 139.915C235.037 141.558 236.199 142.805 237.616 143.655C239.089 144.505 240.732 144.93 242.546 144.93ZM298.562 174.255C294.142 174.255 289.92 173.745 285.897 172.725C281.93 171.705 278.53 170.203 275.697 168.22L281.562 156.915C283.489 158.445 285.869 159.635 288.702 160.485C291.592 161.392 294.397 161.845 297.117 161.845C301.48 161.845 304.625 160.882 306.552 158.955C308.479 157.085 309.442 154.337 309.442 150.71V145.27L310.292 132.35L310.207 119.345V110.93H325.592V148.585C325.592 157.312 323.24 163.772 318.537 167.965C313.834 172.158 307.175 174.255 298.562 174.255ZM295.757 154.62C291.677 154.62 287.909 153.713 284.452 151.9C281.052 150.03 278.304 147.452 276.207 144.165C274.167 140.822 273.147 136.883 273.147 132.35C273.147 127.817 274.167 123.907 276.207 120.62C278.304 117.277 281.052 114.698 284.452 112.885C287.909 111.072 291.677 110.165 295.757 110.165C299.667 110.165 303.01 110.958 305.787 112.545C308.564 114.075 310.66 116.483 312.077 119.77C313.55 123.057 314.287 127.25 314.287 132.35C314.287 137.45 313.55 141.643 312.077 144.93C310.66 148.217 308.564 150.653 305.787 152.24C303.01 153.827 299.667 154.62 295.757 154.62ZM299.582 141.785C301.509 141.785 303.209 141.388 304.682 140.595C306.212 139.802 307.402 138.697 308.252 137.28C309.159 135.863 309.612 134.22 309.612 132.35C309.612 130.48 309.159 128.837 308.252 127.42C307.402 126.003 306.212 124.927 304.682 124.19C303.209 123.397 301.509 123 299.582 123C297.655 123 295.927 123.397 294.397 124.19C292.867 124.927 291.649 126.003 290.742 127.42C289.892 128.837 289.467 130.48 289.467 132.35C289.467 134.22 289.892 135.863 290.742 137.28C291.649 138.697 292.867 139.802 294.397 140.595C295.927 141.388 297.655 141.785 299.582 141.785ZM335.969 157V110.93H351.354V124.36L349.059 120.535C350.419 117.078 352.629 114.5 355.689 112.8C358.749 111.043 362.46 110.165 366.824 110.165V124.7C366.087 124.587 365.435 124.53 364.869 124.53C364.359 124.473 363.792 124.445 363.169 124.445C359.882 124.445 357.219 125.352 355.179 127.165C353.139 128.922 352.119 131.812 352.119 135.835V157H335.969ZM398.884 157V148.415L397.779 146.29V130.48C397.779 127.93 396.986 125.975 395.399 124.615C393.869 123.198 391.404 122.49 388.004 122.49C385.794 122.49 383.556 122.858 381.289 123.595C379.022 124.275 377.096 125.238 375.509 126.485L370.069 115.52C372.676 113.82 375.792 112.517 379.419 111.61C383.102 110.647 386.757 110.165 390.384 110.165C397.864 110.165 403.644 111.893 407.724 115.35C411.861 118.75 413.929 124.105 413.929 131.415V157H398.884ZM385.284 157.765C381.601 157.765 378.484 157.142 375.934 155.895C373.384 154.648 371.429 152.948 370.069 150.795C368.766 148.642 368.114 146.233 368.114 143.57C368.114 140.737 368.822 138.3 370.239 136.26C371.712 134.163 373.951 132.577 376.954 131.5C379.957 130.367 383.839 129.8 388.599 129.8H399.479V138.215H390.809C388.202 138.215 386.361 138.64 385.284 139.49C384.264 140.34 383.754 141.473 383.754 142.89C383.754 144.307 384.292 145.44 385.369 146.29C386.446 147.14 387.919 147.565 389.789 147.565C391.546 147.565 393.132 147.14 394.549 146.29C396.022 145.383 397.099 144.023 397.779 142.21L399.989 148.16C399.139 151.333 397.467 153.742 394.974 155.385C392.537 156.972 389.307 157.765 385.284 157.765ZM444.764 157.765C440.571 157.765 436.746 156.802 433.289 154.875C429.889 152.892 427.169 150.143 425.129 146.63C423.089 143.06 422.069 138.81 422.069 133.88C422.069 129.007 423.089 124.813 425.129 121.3C427.169 117.73 429.889 114.982 433.289 113.055C436.746 111.128 440.571 110.165 444.764 110.165C448.731 110.165 452.074 111.015 454.794 112.715C457.571 114.415 459.667 117.022 461.084 120.535C462.501 124.048 463.209 128.497 463.209 133.88C463.209 139.377 462.529 143.882 461.169 147.395C459.809 150.908 457.769 153.515 455.049 155.215C452.329 156.915 448.901 157.765 444.764 157.765ZM448.164 144.93C449.977 144.93 451.592 144.505 453.009 143.655C454.482 142.805 455.644 141.558 456.494 139.915C457.344 138.215 457.769 136.203 457.769 133.88C457.769 131.557 457.344 129.602 456.494 128.015C455.644 126.372 454.482 125.125 453.009 124.275C451.592 123.425 449.977 123 448.164 123C446.294 123 444.622 123.425 443.149 124.275C441.732 125.125 440.599 126.372 439.749 128.015C438.899 129.602 438.474 131.557 438.474 133.88C438.474 136.203 438.899 138.215 439.749 139.915C440.599 141.558 441.732 142.805 443.149 143.655C444.622 144.505 446.294 144.93 448.164 144.93ZM458.279 157V149.095L458.364 133.88L457.514 118.665V93.93H473.664V157H458.279ZM507.175 157.765C502.131 157.765 497.655 156.745 493.745 154.705C489.835 152.665 486.746 149.86 484.48 146.29C482.27 142.663 481.165 138.527 481.165 133.88C481.165 129.233 482.27 125.125 484.48 121.555C486.746 117.985 489.835 115.208 493.745 113.225C497.655 111.185 502.131 110.165 507.175 110.165C512.218 110.165 516.695 111.185 520.605 113.225C524.571 115.208 527.66 117.985 529.87 121.555C532.08 125.125 533.185 129.233 533.185 133.88C533.185 138.527 532.08 142.663 529.87 146.29C527.66 149.86 524.571 152.665 520.605 154.705C516.695 156.745 512.218 157.765 507.175 157.765ZM507.175 144.93C509.045 144.93 510.688 144.505 512.105 143.655C513.578 142.805 514.74 141.558 515.59 139.915C516.44 138.215 516.865 136.203 516.865 133.88C516.865 131.557 516.44 129.602 515.59 128.015C514.74 126.372 513.578 125.125 512.105 124.275C510.688 123.425 509.045 123 507.175 123C505.361 123 503.718 123.425 502.245 124.275C500.828 125.125 499.666 126.372 498.76 128.015C497.91 129.602 497.485 131.557 497.485 133.88C497.485 136.203 497.91 138.215 498.76 139.915C499.666 141.558 500.828 142.805 502.245 143.655C503.718 144.505 505.361 144.93 507.175 144.93Z" fill="white"/>
</svg>
